<?xml version="1.0" standalone="no"?>
<!DOCTYPE svg PUBLIC "-//W3C//DTD SVG 20010904//EN"
 "http://www.w3.org/TR/2001/REC-SVG-20010904/DTD/svg10.dtd">
<svg version="1.0" xmlns="http://www.w3.org/2000/svg"
 width="375.000000pt" height="375.000000pt" viewBox="0 0 375.000000 375.000000"
 preserveAspectRatio="xMidYMid meet">

<g transform="translate(0.000000,375.000000) scale(0.100000,-0.100000)"
fill="#000000" stroke="none">
<path d="M40 3710 c-20 -20 -20 -33 -20 -1831 0 -1162 4 -1817 10 -1829 5 -10
24 -23 41 -29 23 -8 537 -11 1806 -11 1950 0 1829 -4 1852 60 8 24 11 510 11
1812 0 1899 2 1824 -45 1842 -9 3 -831 6 -1826 6 -1796 0 -1809 0 -1829 -20z
m1398 -1053 c157 -158 211 -218 206 -230 -3 -10 -14 -17 -23 -17 -9 0 -112 96
-230 214 -211 211 -237 246 -184 246 11 0 110 -92 231 -213z m1139 197 c7 -19
-412 -444 -438 -444 -9 0 -20 7 -23 17 -5 12 49 72 206 230 121 121 220 213
231 213 9 0 20 -7 24 -16z m-738 -510 c35 -45 23 -134 -18 -134 -47 0 -80 102
-46 140 24 27 40 25 64 -6z m146 6 c34 -38 1 -140 -46 -140 -41 0 -53 89 -18
134 24 31 40 33 64 6z m-568 -103 c46 -46 83 -89 83 -96 0 -22 -162 -181 -184
-181 -28 0 -176 148 -176 175 0 23 158 185 181 185 7 0 50 -37 96 -83z m1125
5 c53 -54 78 -86 78 -102 0 -33 -147 -180 -180 -180 -29 0 -180 147 -180 175
0 24 161 185 185 185 10 0 54 -35 97 -78z m-773 -39 c26 -22 42 -74 29 -96
-21 -39 -95 1 -113 61 -14 47 41 70 84 35z m301 -3 c15 -29 -16 -92 -51 -104
-41 -14 -59 -2 -59 39 0 66 83 115 110 65z m-135 -86 c11 -23 28 -51 38 -61
44 -49 8 -81 -93 -81 -106 0 -141 36 -86 87 13 13 27 35 31 49 10 41 25 53 59
50 25 -2 35 -11 51 -44z m-295 -199 c11 -14 -17 -46 -201 -230 -121 -122 -221
-215 -232 -215 -53 0 -27 35 184 246 118 118 219 214 225 214 6 0 17 -7 24
-15z m729 -199 c153 -153 212 -219 208 -230 -4 -9 -14 -16 -24 -16 -10 0 -113
95 -232 214 -186 186 -213 217 -202 230 8 9 19 16 25 16 6 0 107 -96 225 -214z
m-931 -574 c3 -21 1 -22 -35 -16 -29 4 -42 2 -52 -10 -19 -23 -8 -42 38 -66
47 -23 61 -45 61 -94 0 -49 -31 -76 -86 -76 -54 0 -74 8 -74 29 0 26 9 31 35
19 66 -30 107 36 43 70 -81 43 -101 100 -53 148 21 21 33 25 73 22 40 -3 47
-6 50 -26z m802 -22 c0 -43 -3 -50 -20 -50 -16 0 -20 7 -20 34 0 19 -3 41 -6
50 -5 12 0 16 20 16 25 0 26 -3 26 -50z m110 25 c0 -20 -5 -25 -24 -25 -14 0
-28 5 -31 10 -12 19 4 40 30 40 20 0 25 -5 25 -25z m100 13 c0 -39 -14 -88
-25 -88 -7 0 -15 14 -19 31 -11 57 -8 69 19 69 14 0 25 -6 25 -12z m-500 -28
c0 -23 4 -30 20 -30 12 0 20 -7 20 -16 0 -9 -9 -18 -20 -21 -18 -5 -20 -14
-20 -74 0 -62 2 -69 20 -69 13 0 20 -7 20 -20 0 -16 -7 -20 -35 -20 -45 0 -55
20 -55 109 0 41 -4 71 -10 71 -5 0 -10 9 -10 20 0 11 4 20 9 20 5 0 12 14 16
30 5 21 13 30 26 30 14 0 19 -7 19 -30z m-414 -57 c3 -16 12 -50 18 -78 l12
-50 14 78 c12 71 15 77 36 77 13 0 24 -6 24 -12 0 -7 -17 -77 -37 -155 -35
-131 -40 -143 -60 -143 -25 0 -28 14 -13 56 8 21 4 48 -20 133 -16 59 -30 110
-30 114 0 4 11 7 25 7 19 0 26 -7 31 -27z m270 19 c24 -16 34 -54 34 -131 0
-80 0 -81 -25 -81 -14 0 -25 5 -25 12 0 9 -3 9 -12 0 -17 -17 -73 -15 -89 4
-7 9 -13 32 -13 51 0 42 32 73 75 73 23 0 29 4 29 21 0 20 -4 21 -45 16 -50
-7 -70 8 -40 30 20 14 93 18 111 5z m354 -9 c0 -10 -18 -51 -40 -90 l-39 -73
39 0 c33 0 40 -3 40 -20 0 -18 -7 -20 -70 -20 -85 0 -86 4 -30 106 l40 73 -37
3 c-27 2 -39 8 -41 21 -3 15 5 17 67 17 61 0 71 -2 71 -17z m190 -93 l0 -110
-25 0 -25 0 0 110 0 110 25 0 25 0 0 -110z"/>
<path d="M1252 2207 l-62 -63 63 -62 63 -62 64 65 64 65 -59 60 c-33 33 -62
60 -65 60 -3 0 -34 -28 -68 -63z"/>
<path d="M2380 2215 l-64 -65 64 -65 65 -65 64 65 64 65 -65 65 -64 65 -64
-65z"/>
<path d="M1737 983 c-4 -3 -7 -17 -7 -30 0 -20 5 -24 23 -21 30 4 39 58 9 58
-10 0 -22 -3 -25 -7z"/>
</g>
</svg>
